<svg xmlns="http://www.w3.org/2000/svg" viewBox="0 0 1328.369 1179.069" fill="none"><defs><linearGradient id="mg" gradientUnits="userSpaceOnUse" x1="0" y1="1179" x2="1328" y2="0"><stop offset="0" stop-color="#0F6FDA"></stop><stop offset="1" stop-color="#9CBDE9"></stop></linearGradient></defs><g transform="translate(0,181.675)"><path d="M 770.789 839.815 C 797.239 841.479 823.731 846.598 850.48 852.997 C 919.761 869.378 995.57 854.831 1050.645 808.632 C 1083.323 781.203 1110.626 742.427 1117.409 699.598 C 1125.942 645.636 1093.391 596.11 1056.916 559.85 C 1038.87 541.934 1019.801 524.572 1006.022 503.072 C 991.389 480.122 985.288 452.608 991.005 425.733 C 997.105 397.152 1017.967 377.956 1031.149 352.873 C 1044.928 326.809 1052.948 297.631 1054.314 268.197 C 1056.447 220.889 1042.582 168.889 1009.733 133.696 C 968.267 89.332 910.589 96.285 855.513 103.153 C 806.453 109.338 758.289 120.984 709.911 131.051 C 668.616 139.668 625.485 150.717 583.038 143.55 C 531.845 134.933 491.743 94.92 449.679 67.491 C 347.506 1.03 236.929 -22.816 121.403 25.515 C 84.843 40.829 51.311 66.894 29.213 100.508 C 3.915 139.071 -0.437 182.881 0.033 227.928 C 0.715 281.634 14.964 336.663 45.381 381.241 C 78.998 430.383 126.138 467.666 170.207 506.826 C 208.773 540.953 227.8 579.217 215.684 630.663 C 206.554 669.226 187.57 704.973 175.369 742.598 C 161.718 784.829 148.919 834.568 167.05 876.715 C 190.599 931.445 240.129 970.05 296.356 987.199 C 359.537 1006.395 423.016 997.181 482.528 970.434 C 497.076 963.95 511.239 956.656 525.189 949.105 C 552.706 934.175 578.004 917.88 602.918 898.897 C 628.813 879.146 655.433 857.817 687.258 848.39 C 715.457 840.071 743.102 838.024 770.703 839.858 L 770.789 839.773 L 770.789 839.815 Z" fill="url(#mg)"></path></g><g transform="translate(1023.257,0)"><path d="M 152.555 305.091 C 236.811 305.091 305.111 236.795 305.111 152.545 C 305.111 68.296 236.811 0 152.555 0 C 68.3 0 0 68.296 0 152.545 C 0 236.795 68.3 305.091 152.555 305.091 Z" fill="url(#mg)"></path></g></svg>